# xmcd
#
# Track frame offsets: 
#        150
#        18478
#        38038
#        53442
#        69643
#        90825
#        110981
#        130293
#        149793
#        169116
#        186090
#        202340
#        218580
#        236309
#        258723
#        280005
#
# Disc length: 3975 seconds
#
# Revision: 0
# Processed by: cddbd v1.5PL3 Copyright (c) Steve Scherf et al.
# Submitted via: ExactAudioCopy v0.95a4
#
DISCID=ee0f8510
DTITLE=杜德伟 - 跟着我一辈子
DYEAR=1999
DGENRE=R&B
TTITLE0=热情回来
TTITLE1=跟着我一辈子
TTITLE2=要求
TTITLE3=勇气
TTITLE4=Only For You
TTITLE5=为爱存在
TTITLE6=改变
TTITLE7=只要你明白
TTITLE8=眷恋你
TTITLE9=让眼泪在空中飞
TTITLE10=情人
TTITLE11=把你宠坏
TTITLE12=把你藏起来
TTITLE13=不走
TTITLE14=真的想你
TTITLE15=天真
EXTD=
EXTT0=
EXTT1=
EXTT2=
EXTT3=
EXTT4=
EXTT5=
EXTT6=
EXTT7=
EXTT8=
EXTT9=
EXTT10=
EXTT11=
EXTT12=
EXTT13=
EXTT14=
EXTT15=
PLAYORDER=
